<svg width="24" height="20" viewBox="0 0 24 20" fill="none" xmlns="http://www.w3.org/2000/svg">
<path d="M5.40004 6.39844C6.19569 6.39844 6.95875 6.08237 7.52136 5.51976C8.08397 4.95715 8.40004 4.19409 8.40004 3.39844C8.40004 2.60279 8.08397 1.83973 7.52136 1.27712C6.95875 0.714508 6.19569 0.398438 5.40004 0.398438C4.60439 0.398438 3.84133 0.714508 3.27872 1.27712C2.71611 1.83973 2.40004 2.60279 2.40004 3.39844C2.40004 4.19409 2.71611 4.95715 3.27872 5.51976C3.84133 6.08237 4.60439 6.39844 5.40004 6.39844ZM19.2 6.39844C19.9957 6.39844 20.7588 6.08237 21.3214 5.51976C21.884 4.95715 22.2 4.19409 22.2 3.39844C22.2 2.60279 21.884 1.83973 21.3214 1.27712C20.7588 0.714508 19.9957 0.398438 19.2 0.398438C18.4044 0.398438 17.6413 0.714508 17.0787 1.27712C16.5161 1.83973 16.2 2.60279 16.2 3.39844C16.2 4.19409 16.5161 4.95715 17.0787 5.51976C17.6413 6.08237 18.4044 6.39844 19.2 6.39844ZM3.8147e-05 11.5997C3.8147e-05 12.0384 0.360038 12.3984 0.798788 12.3984H8.79754C8.80504 12.3984 8.81254 12.3984 8.82379 12.3984C7.82629 11.5172 7.20004 10.2309 7.20004 8.79844C7.20004 8.51344 7.22629 8.23594 7.27129 7.96219C6.76129 7.72594 6.19504 7.59844 5.59879 7.59844H3.99754C1.79254 7.59844 3.8147e-05 9.39094 3.8147e-05 11.5997ZM15.1988 12.3984H18.1013C18.3488 11.7009 19.0163 11.1984 19.8 11.1984H21C21.7838 11.1984 22.4513 11.7009 22.6988 12.3984H23.2013C23.6438 12.3984 24 12.0384 24 11.5997C24 9.39094 22.2075 7.59844 19.9988 7.59844H18.3975C17.8013 7.59844 17.235 7.72969 16.725 7.96219C16.7738 8.23219 16.7963 8.51344 16.7963 8.79844C16.7963 10.2309 16.1663 11.5172 15.1725 12.3984C15.18 12.3984 15.1875 12.3984 15.1988 12.3984ZM15.6 15.3984C15.6 14.8509 15.8438 14.3597 16.2338 14.0297C15.6113 13.7522 14.925 13.5984 14.2013 13.5984H9.80254C7.03879 13.5984 4.80004 15.8372 4.80004 18.5972C4.80004 19.1484 5.24629 19.5984 5.80129 19.5984H18.105C18.0375 19.4109 18.0038 19.2084 18.0038 18.9984V18.3984H17.4038C16.41 18.3984 15.6038 17.5922 15.6038 16.5984V15.3984H15.6ZM15.6 8.79844C15.6 7.84366 15.2208 6.92799 14.5456 6.25285C13.8705 5.57772 12.9548 5.19844 12 5.19844C11.0453 5.19844 10.1296 5.57772 9.45445 6.25285C8.77932 6.92799 8.40004 7.84366 8.40004 8.79844C8.40004 9.75322 8.77932 10.6689 9.45445 11.344C10.1296 12.0192 11.0453 12.3984 12 12.3984C12.9548 12.3984 13.8705 12.0192 14.5456 11.344C15.2208 10.6689 15.6 9.75322 15.6 8.79844ZM19.2 12.9984V14.7984H17.4C17.07 14.7984 16.8 15.0684 16.8 15.3984V16.5984C16.8 16.9284 17.07 17.1984 17.4 17.1984H19.2V18.9984C19.2 19.3284 19.47 19.5984 19.8 19.5984H21C21.33 19.5984 21.6 19.3284 21.6 18.9984V17.1984H23.4C23.73 17.1984 24 16.9284 24 16.5984V15.3984C24 15.0684 23.73 14.7984 23.4 14.7984H21.6V12.9984C21.6 12.6684 21.33 12.3984 21 12.3984H19.8C19.47 12.3984 19.2 12.6684 19.2 12.9984Z" fill="#F4F4F4"/>
</svg>
