<svg width="191" height="52" viewBox="0 0 191 52" fill="none" xmlns="http://www.w3.org/2000/svg">
<g clip-path="url(#clip0_441_2057)">
<path d="M110.205 32.7739H110.001V34.3555H106.098V14.5859H110.052V22.0192H110.257C110.716 21.2812 111.915 20.095 114.058 20.095C117.681 20.095 120.156 23.0999 120.156 27.4757C120.156 31.8513 117.63 34.6981 113.956 34.6981C111.711 34.6981 110.588 33.4065 110.205 32.7739ZM116.15 27.3966C116.15 25.2615 114.9 23.7854 113.063 23.7854C111.252 23.7854 109.976 25.1824 109.976 27.3966C109.976 29.4527 111.175 31.0078 113.063 31.0078C114.9 31.0078 116.15 29.5581 116.15 27.3966Z" fill="white"/>
<path d="M121.496 16.6673C121.496 15.2966 122.466 14.4531 123.818 14.4531C125.17 14.4531 126.14 15.2966 126.14 16.6673C126.14 18.038 125.17 18.8815 123.818 18.8815C122.466 18.8815 121.496 18.038 121.496 16.6673ZM121.853 20.4368H125.808V34.3545H121.853V20.4368Z" fill="white"/>
<path d="M127.188 27.3953C127.188 23.2832 129.969 20.0938 134.306 20.0938C138.057 20.0938 140.736 22.4397 141.118 25.84H137.113C136.932 25.2293 136.562 24.697 136.059 24.3254C135.556 23.9538 134.949 23.7636 134.332 23.7841C132.392 23.7841 131.193 25.392 131.193 27.3953C131.193 29.4249 132.443 31.0065 134.357 31.0065C135.684 31.0065 136.73 30.2158 137.062 29.1086H141.093C140.659 32.4037 138.031 34.6968 134.332 34.6968C129.994 34.6968 127.188 31.481 127.188 27.3953Z" fill="white"/>
<path d="M142.412 36.8067H143.968C145.04 36.8067 145.652 36.2005 146.009 35.2779L146.239 34.619L140.906 20.4375H145.04L147.999 29.268H148.203L151.01 20.4375H155.194L149.479 36.3586C148.561 38.9154 147.03 40.418 144.198 40.418H142.412L142.412 36.8067Z" fill="white"/>
<path d="M161.709 34.6968C158.009 34.6968 155.381 32.4037 154.947 29.1086H158.979C159.31 30.2158 160.356 31.0065 161.683 31.0065C163.597 31.0065 164.847 29.4249 164.847 27.3953C164.847 25.392 163.648 23.7841 161.709 23.7841C161.091 23.7636 160.484 23.9538 159.981 24.3254C159.478 24.697 159.108 25.2293 158.928 25.84H154.922C155.305 22.4397 157.984 20.0938 161.734 20.0938C166.072 20.0938 168.853 23.2832 168.853 27.3953C168.853 31.481 166.046 34.6968 161.709 34.6968Z" fill="white"/>
<path d="M170.48 29.9799V14.5859H174.435V29.5053C174.435 30.3488 174.843 30.7706 175.558 30.7706H176.043V34.3555H174.69C171.986 34.3555 170.48 32.6948 170.48 29.9799Z" fill="white"/>
<path d="M176.73 27.4744C176.73 23.1251 179.537 20.0938 183.645 20.0938C188.084 20.0938 190.406 23.4678 190.406 27.3426V28.5288H180.481C180.609 30.2949 181.859 31.5601 183.721 31.5601C185.278 31.5601 186.324 30.7693 186.707 29.8995H190.279C189.666 32.8254 187.217 34.6968 183.568 34.6968C179.665 34.6968 176.73 31.6656 176.73 27.4744ZM186.732 25.8137C186.579 24.3376 185.405 23.2041 183.645 23.2041C182.912 23.182 182.197 23.4338 181.629 23.9133C181.062 24.3927 180.682 25.0675 180.558 25.8137H186.732Z" fill="white"/>
<path d="M36.1526 31.7765C34.8882 34.3496 32.8217 36.4076 30.2864 37.6186C27.7511 38.8296 24.8949 39.123 22.1784 38.4514C19.462 37.7798 17.0437 36.1824 15.3136 33.9169C13.5836 31.6514 12.6427 28.8499 12.6427 25.9642C12.6427 23.0785 13.5836 20.277 15.3136 18.0115C17.0437 15.746 19.462 14.1486 22.1784 13.477C24.8949 12.8054 27.7511 13.0988 30.2864 14.3098C32.8217 15.5208 34.8882 17.5788 36.1526 20.1519H49.6062C48.2239 13.9341 44.6741 8.45979 39.6342 4.77341C34.5943 1.08703 28.4171 -0.553328 22.2812 0.16532C16.1454 0.883967 10.4804 3.91131 6.36719 8.66973C2.25397 13.4281 -0.0195312 19.5845 -0.0195312 25.9642C-0.0195312 32.3439 2.25397 38.5003 6.36719 43.2587C10.4804 48.0171 16.1454 51.0444 22.2812 51.7631C28.4171 52.4817 34.5943 50.8414 39.6342 47.155C44.6741 43.4686 48.2239 37.9943 49.6062 31.7765H36.1526Z" fill="#F7475E"/>
<path d="M63.0629 31.7765C64.3274 34.3496 66.3939 36.4076 68.9292 37.6186C71.4645 38.8296 74.3207 39.123 77.0372 38.4514C79.7536 37.7798 82.1719 36.1824 83.902 33.9169C85.632 31.6514 86.5729 28.8499 86.5729 25.9642C86.5729 23.0785 85.632 20.277 83.902 18.0115C82.1719 15.746 79.7536 14.1486 77.0372 13.477C74.3207 12.8054 71.4645 13.0988 68.9292 14.3098C66.3939 15.5208 64.3274 17.5788 63.0629 20.1519H49.6094C50.9917 13.9341 54.5415 8.45979 59.5814 4.77341C64.6213 1.08703 70.7985 -0.553328 76.9344 0.16532C83.0702 0.883967 88.7352 3.91131 92.8484 8.66973C96.9616 13.4281 99.2351 19.5845 99.2351 25.9642C99.2351 32.3439 96.9616 38.5003 92.8484 43.2587C88.7352 48.0171 83.0702 51.0444 76.9344 51.7631C70.7985 52.4817 64.6213 50.8414 59.5814 47.155C54.5415 43.4686 50.9917 37.9943 49.6094 31.7765H63.0629Z" fill="#F7475E"/>
</g>
<defs>
<clipPath id="clip0_441_2057">
<rect width="190.404" height="51.9283" fill="white"/>
</clipPath>
</defs>
</svg>
