<svg width="554" height="429" viewBox="0 0 554 429" fill="none" xmlns="http://www.w3.org/2000/svg">
<path d="M41.5844 149.652V116.593C41.5844 100.364 55.0556 87.207 71.3189 87.207C78.9911 87.207 86.4772 90.195 91.9751 95.5349L160.55 162.14C166.048 167.48 173.417 170.468 181.089 170.468H432.081C447.375 170.468 462.302 175.117 474.884 183.797L532.975 223.881C540.802 229.281 545.473 238.171 545.473 247.666C545.473 263.637 532.496 276.584 516.492 276.584H417.931" stroke="url(#paint0_linear_441_3031)" stroke-width="6" stroke-linecap="round" stroke-linejoin="round"/>
<path d="M248.833 237.402L152.197 360.329C147.143 366.756 151.733 376.17 159.92 376.17H216.572C222.34 376.17 227.947 374.268 232.52 370.762L363.876 270.053" stroke="url(#paint1_linear_441_3031)" stroke-width="6" stroke-linecap="round" stroke-linejoin="round"/>
<path d="M416.227 292.909C424.359 292.909 430.951 286.331 430.951 278.216C430.951 270.102 424.359 263.523 416.227 263.523C408.095 263.523 401.503 270.102 401.503 278.216C401.503 286.331 408.095 292.909 416.227 292.909Z" fill="#00C29F"/>
<path d="M129.928 201.488H8.864" stroke="url(#paint2_linear_441_3031)" stroke-width="6" stroke-linecap="round" stroke-linejoin="round"/>
<path d="M156.103 237.402H35.0397" stroke="url(#paint3_linear_441_3031)" stroke-width="6" stroke-linecap="round" stroke-linejoin="round"/>
<path d="M429.315 206.383H504.57" stroke="#00C29F" stroke-width="6" stroke-linecap="round" stroke-linejoin="round"/>
<path d="M226.45 43.3986C212.143 35.7828 194.032 37.1242 180.862 48.1763C171.799 55.7815 166.874 66.4755 166.334 77.415M291.891 54.5591H325.608C347.645 54.5591 365.51 72.1012 365.51 93.7405C365.51 115.38 347.645 132.922 325.608 132.922H67.7591M224.815 56.1919C224.815 30.0444 246.056 8.84766 272.259 8.84766C297.361 8.84766 317.91 28.3023 319.592 52.9267" stroke="url(#paint4_linear_441_3031)" stroke-width="6" stroke-linecap="round"/>
<path d="M367.921 354.287C357.378 348.675 344.034 349.663 334.329 357.807C327.651 363.411 324.023 371.291 323.625 379.352M416.14 362.51H440.984C457.223 362.51 470.386 375.436 470.386 391.381C470.386 407.325 457.223 420.251 440.984 420.251H250.99M366.716 363.713C366.716 344.447 382.367 328.828 401.674 328.828C420.171 328.828 435.313 343.163 436.551 361.307" stroke="url(#paint5_linear_441_3031)" stroke-width="6" stroke-linecap="round"/>
<defs>
<linearGradient id="paint0_linear_441_3031" x1="452.219" y1="227.607" x2="-152.953" y2="78.4532" gradientUnits="userSpaceOnUse">
<stop offset="0.619792" stop-color="#00C29F"/>
<stop offset="1" stop-color="#00C29F" stop-opacity="0"/>
</linearGradient>
<linearGradient id="paint1_linear_441_3031" x1="239.539" y1="258.625" x2="365.507" y2="270.101" gradientUnits="userSpaceOnUse">
<stop offset="0.541667" stop-color="#00C29F"/>
<stop offset="1" stop-color="#303545" stop-opacity="0"/>
</linearGradient>
<linearGradient id="paint2_linear_441_3031" x1="-nan" y1="-nan" x2="-nan" y2="-nan" gradientUnits="userSpaceOnUse">
<stop offset="0.625" stop-color="#00C29F"/>
<stop offset="1" stop-color="#00C29F" stop-opacity="0"/>
</linearGradient>
<linearGradient id="paint3_linear_441_3031" x1="-nan" y1="-nan" x2="-nan" y2="-nan" gradientUnits="userSpaceOnUse">
<stop offset="0.614583" stop-color="#00C29F"/>
<stop offset="1" stop-color="#00C29F" stop-opacity="0"/>
</linearGradient>
<linearGradient id="paint4_linear_441_3031" x1="286.983" y1="82.3127" x2="131.612" y2="38.0616" gradientUnits="userSpaceOnUse">
<stop offset="0.567708" stop-color="#00C29F"/>
<stop offset="1" stop-color="#303545" stop-opacity="0"/>
</linearGradient>
<linearGradient id="paint5_linear_441_3031" x1="412.523" y1="382.96" x2="298.04" y2="350.354" gradientUnits="userSpaceOnUse">
<stop offset="0.567708" stop-color="#00C29F"/>
<stop offset="1" stop-color="#303545" stop-opacity="0"/>
</linearGradient>
</defs>
</svg>
