<svg width="152" height="33" viewBox="0 0 152 33" fill="none" xmlns="http://www.w3.org/2000/svg">
<g clip-path="url(#clip0_441_1986)">
<path d="M1.29462 24.4459C-6.19156 16.7745 21.3626 13.6361 47.5712 16.2922C12.4295 16.6662 0.410397 22.2476 1.29462 24.4459Z" fill="#191919"/>
<path d="M54.5709 17.9574H65.3039V14.4974H54.5709V8.88804H67.5302L67.1003 5.34766H50.7614V12.9946L54.5464 16.2659L50.7614 19.4847V27.7468H67.3135L67.8237 24.2064H54.5709" fill="#505050"/>
<path d="M84.8874 12.9387C84.8874 15.6997 83.2762 16.9893 79.7638 16.9893H74.3711V8.80765H79.7638C83.2238 8.80765 84.8874 10.1497 84.8874 12.9387ZM88.7773 13.0191C88.7773 8.13662 85.5864 5.34766 80.0049 5.34766H70.5895V27.7503H74.3711V20.694H79.5506L84.7266 27.7503H89.3959L83.734 20.1592C87.0053 19.1387 88.7773 16.6189 88.7773 13.0226" fill="#505050"/>
<path d="M89.6599 8.88804H97.845V27.7503H101.655V8.88804H109.808V5.34766H89.6599" fill="#505050"/>
<path d="M127.301 17.7407C127.301 22.3296 125.557 24.3672 121.667 24.3672C117.777 24.3672 116.033 22.3296 116.033 17.7407V5.34766H112.252V17.7687C112.252 24.7167 115.338 28.0718 121.667 28.0718C127.996 28.0718 131.082 24.6922 131.082 17.7687V5.34766H127.301" fill="#505050"/>
<path d="M144.979 14.82L141.117 14.0406C138.38 13.3696 137.335 12.5378 137.335 11.0629C137.335 10.0424 137.737 8.8646 140.767 8.8646H150.532L149.997 5.32422H140.687C134.703 5.32422 133.445 8.49064 133.445 11.1188C133.445 14.6872 135.483 16.6723 140.019 17.5321L143.748 18.3114C146.618 18.8741 147.827 19.8422 147.827 21.5303C147.827 23.4071 146.702 24.1865 144.098 24.1865H133.099L133.529 27.7268H144.154C149.008 27.7268 151.664 25.5006 151.664 21.4499C151.717 17.7767 149.707 15.7881 144.986 14.8235" fill="#505050"/>
<path d="M11.8634 20.1558C10.7625 20.3969 9.79789 20.6381 8.91366 20.8792L6.12469 27.7468H10.2837L12.807 21.5747L13.506 19.8028C12.9154 19.9111 12.3807 20.0439 11.8704 20.1523M22.1735 18.4362L22.2539 18.625L23.4876 21.5747L25.9306 27.7468H30.1699L26.1717 18.0099C24.7493 18.1427 23.4352 18.279 22.1735 18.4397M15.278 15.3537L17.9341 8.77969H18.364L20.779 14.8959C22.0931 14.8155 23.4631 14.763 24.8297 14.7351L20.9852 5.34766H15.2185L10.9268 15.9443C12.3737 15.7032 13.852 15.5145 15.271 15.3537" fill="#505050"/>
<path d="M45.5845 23.1866C45.1826 23.4802 44.7247 23.7213 44.2704 23.938C43.4106 24.312 42.4985 24.5007 41.5618 24.4728C39.5767 24.5007 37.644 23.6689 36.3054 22.1941C35.0717 20.88 34.3203 19.1884 34.1875 17.392C32.8734 17.4724 31.6117 17.5528 30.4059 17.6331C30.5947 20.3173 31.748 22.8651 33.6248 24.7698C35.6623 26.9437 38.5352 28.1774 41.5374 28.1494C43.6029 28.1494 45.6404 27.5868 47.4124 26.5138L47.5452 26.4334V21.6034L47.0349 22.0333C46.5771 22.4632 46.0948 22.8371 45.5845 23.1866ZM34.3168 14.7638C34.5859 13.3134 35.2814 11.9469 36.3019 10.8739C37.616 9.37109 39.5487 8.51483 41.5339 8.53929C43.4106 8.53929 45.263 9.31866 47.0349 10.8739L47.5452 11.3038V6.57862L47.4124 6.49824C42.6907 3.57297 36.5466 4.62145 33.0866 8.96567C31.7165 10.6013 30.8323 12.5864 30.5108 14.7079C31.7725 14.7079 33.0341 14.7079 34.3203 14.7603" fill="#505050"/>
</g>
<defs>
<clipPath id="clip0_441_1986">
<rect width="151.614" height="32" fill="white" transform="translate(0.0465698 0.5)"/>
</clipPath>
</defs>
</svg>
