<svg width="179" height="33" viewBox="0 0 179 33" fill="none" xmlns="http://www.w3.org/2000/svg">
<path fill-rule="evenodd" clip-rule="evenodd" d="M10.8148 7.07812C9.05626 7.07812 7.43758 7.85046 6.14172 9.12669V7.8283H0.660919V30.9107V32.3245V32.4976H6.11288V32.3245H6.14171V24.8804C7.43757 26.1566 9.05625 26.929 10.8148 26.929C15.0716 26.929 18.5168 22.489 18.5168 17.0035C18.5168 11.5181 15.0716 7.07812 10.8148 7.07812ZM9.45905 11.4638C10.2492 11.4638 10.958 11.849 11.5648 12.4448C11.733 12.6076 11.9079 12.7945 12.0552 12.993C12.0763 13.0219 12.0923 13.0499 12.1129 13.0795C12.1209 13.0908 12.1338 13.0971 12.1418 13.1084C12.3041 13.3457 12.4444 13.5819 12.5745 13.8586C12.584 13.8784 12.5939 13.8963 12.6033 13.9163C12.6277 13.9696 12.6379 14.0348 12.661 14.0894C12.763 14.3304 12.8742 14.5759 12.9495 14.8396C13.0379 15.1491 13.1037 15.4855 13.1514 15.8206C13.1526 15.8303 13.1502 15.8397 13.1514 15.8494C13.1993 16.1949 13.2379 16.5514 13.2379 16.917C13.238 16.9268 13.2379 16.936 13.2379 16.9459C13.2367 17.3111 13.2005 17.6686 13.1514 18.0134C13.1502 18.0227 13.1526 18.033 13.1514 18.0423C13.1011 18.386 13.0426 18.7069 12.9495 19.0233C12.947 19.0323 12.9519 19.0432 12.9495 19.0521C12.3763 21.0083 11.026 22.3991 9.45907 22.3991C9.18782 22.3991 8.93457 22.3342 8.68022 22.2548C8.4363 22.1788 8.21145 22.0786 7.9879 21.9374C7.98181 21.9339 7.96511 21.941 7.95908 21.9374C7.73887 21.7959 7.52001 21.6155 7.32446 21.4181C7.12728 21.219 6.94382 21.0028 6.77637 20.7545C6.6449 20.5595 6.51194 20.3409 6.40137 20.1197C6.3879 20.0928 6.38571 20.0605 6.37254 20.0332C6.3219 19.9302 6.274 19.8239 6.22831 19.7158C6.19967 19.6466 6.16834 19.5849 6.14177 19.5138V19.485C5.8506 18.7143 5.68023 17.8558 5.68023 16.917C5.68023 13.9131 7.36985 11.4638 9.45905 11.4638Z" fill="#505050"/>
<path d="M20.0743 7.77344V24.3639V26.0663V26.2682H25.5839V26.0663H25.6127V14.6693C26.3491 13.5616 28.2122 12.6742 30.632 12.4476C30.7377 12.4377 30.8443 12.4538 30.9493 12.4476V7.77344H30.0262C29.7745 7.81026 29.515 7.85925 29.2474 7.9177C28.9201 7.9892 28.6012 8.07866 28.2954 8.17738C28.2758 8.18376 28.2573 8.19982 28.2377 8.20625L26.8819 8.89871L26.5069 9.10069L25.6127 9.56234V7.77344H20.0743Z" fill="#505050"/>
<path d="M32.732 7.96484H38.2428V26.2681H32.732V7.96484Z" fill="#505050"/>
<path d="M49.2383 7.25391C44.0308 7.25391 39.8344 11.6233 39.8344 17.0351C39.8344 22.4469 44.0308 26.8451 49.2383 26.8451C51.6177 26.8451 53.7803 25.9063 55.4402 24.3926L52.8152 20.584C52.0332 21.8532 50.86 22.6903 49.5267 22.6903C47.1631 22.6903 45.2286 20.1462 45.2286 17.0062C45.2286 13.8663 47.1631 11.3222 49.5267 11.3222C50.9031 11.3222 52.1218 12.2033 52.9017 13.5439L55.2383 9.47558C53.6076 8.08153 51.5165 7.25391 49.2383 7.25391Z" fill="#505050"/>
<path d="M103.152 7.60158C101.348 7.60158 99.701 8.21991 98.5362 9.1885V7.97666H93.0265V26.2695H98.5362V14.0069C99.0804 12.879 100.115 12.1026 101.305 12.1026C102.476 12.1026 103.486 12.853 104.046 13.9492V16.6037V17.6713V17.8732V21.2491V26.4715H109.555V13.8338C109.561 13.5597 109.563 13.2769 109.555 12.9971C109.56 12.9287 109.555 12.8651 109.555 12.7951C109.555 12.6264 109.546 12.4693 109.527 12.3046C109.524 12.2857 109.529 12.2657 109.527 12.2469C109.184 9.64835 106.46 7.60158 103.152 7.60158Z" fill="#505050"/>
<path d="M64.5503 6.9375C60.8873 6.9375 57.7343 9.13994 56.1848 12.3524C56.1602 12.421 56.122 12.4842 56.0983 12.553C55.5435 14.1635 55.2924 15.8469 55.2906 17.5095C55.2976 17.6812 55.3063 17.8522 55.3194 18.0252C55.4021 19.1165 55.6011 20.1733 55.8964 21.2054C55.9424 21.3217 55.9895 21.4328 56.0406 21.5491C56.6553 22.9505 57.5652 24.1826 58.7233 25.1877C58.7506 25.2073 58.7822 25.2258 58.8098 25.245C60.365 26.3293 62.3269 26.9927 64.4637 26.9927C68.6512 26.9927 72.2064 24.5046 73.3195 21.1194L69.5695 19.5436C68.7422 21.4387 67.1257 22.7238 65.2426 22.7238C63.163 22.7238 61.4277 21.1351 60.7137 18.9133C60.6888 18.8357 60.6495 18.7632 60.6272 18.6841V18.5695C60.5786 18.3806 60.5163 18.1929 60.4829 17.9965C60.4817 17.9872 60.4842 17.9772 60.4829 17.9679H60.6272H60.8002H69.7137H73.8388C73.8603 16.7157 73.7839 15.4234 73.5503 14.1287C73.5289 14.052 73.5113 13.9751 73.4927 13.8996C72.3083 9.87049 68.7768 6.9375 64.5503 6.9375ZM64.2618 10.9485C64.3959 10.9326 64.5568 10.9485 64.6945 10.9485C66.6444 10.9485 68.2171 12.5727 68.5599 14.7304H60.7714C61.0971 12.7197 62.496 11.1582 64.2618 10.9485Z" fill="#505050"/>
<path d="M75.6672 0.5H81.178V26.2679H75.6672V0.5Z" fill="#505050"/>
<path d="M84.4383 7.96484H89.9491V26.2681H84.4383V7.96484Z" fill="#505050"/>
<path d="M120.159 6.9375C116.496 6.9375 113.343 9.13992 111.793 12.3523C111.769 12.4209 111.731 12.4841 111.707 12.5529C111.152 14.1634 110.901 15.8468 110.899 17.5093C110.907 17.6811 110.915 17.8521 110.928 18.025C111.011 19.1164 111.21 20.1731 111.505 21.2052C111.551 21.3215 111.598 21.4326 111.649 21.549C112.264 22.9503 113.174 24.1824 114.332 25.1875C114.359 25.207 114.391 25.2256 114.418 25.2448C115.974 26.329 117.935 26.9924 120.072 26.9924C124.26 26.9924 127.815 24.5044 128.928 21.1192L125.178 19.5435C124.351 21.4385 122.734 22.7236 120.851 22.7236C118.772 22.7236 117.036 21.1349 116.322 18.9132C116.297 18.8356 116.258 18.7631 116.236 18.684V18.5694C116.187 18.3804 116.125 18.1928 116.092 17.9964C116.09 17.9871 116.093 17.977 116.092 17.9678H116.236H116.409H125.322H129.447C129.469 16.7156 129.393 15.4233 129.159 14.1287C129.138 14.0519 129.12 13.975 129.101 13.8995C127.917 9.87046 124.385 6.9375 120.159 6.9375ZM119.87 10.9485C120.004 10.9326 120.165 10.9485 120.303 10.9485C122.253 10.9485 123.826 12.5726 124.168 14.7303H116.38C116.706 12.7196 118.105 11.1581 119.87 10.9485Z" fill="#505050"/>
<path d="M134.391 24.6742C134.391 25.8362 133.449 26.7781 132.288 26.7781C131.126 26.7781 130.184 25.8362 130.184 24.6742C130.184 23.5123 131.126 22.5703 132.288 22.5703C133.449 22.5703 134.391 23.5123 134.391 24.6742Z" fill="#505050"/>
<path d="M140.846 16.0977C137.845 16.0977 135.427 18.5007 135.427 21.4772C135.427 24.4536 137.845 26.8725 140.846 26.8725C142.217 26.8725 143.463 26.3562 144.419 25.5237L142.907 23.429C142.456 24.1271 141.78 24.5874 141.012 24.5874C139.65 24.5874 138.535 23.1882 138.535 21.4613C138.535 19.7344 139.65 18.3351 141.012 18.3351C141.805 18.3351 142.507 18.8197 142.956 19.557L144.303 17.3195C143.363 16.5528 142.158 16.0977 140.846 16.0977Z" fill="#505050"/>
<path d="M150.229 15.8867C147.15 15.8867 144.633 18.326 144.633 21.3664C144.633 24.4067 147.15 26.8739 150.229 26.8739C153.308 26.8739 155.796 24.4067 155.796 21.3664C155.796 18.326 153.308 15.8867 150.229 15.8867ZM150.171 18.347C151.515 18.347 152.623 19.7041 152.623 21.3664C152.623 23.0286 151.515 24.3858 150.171 24.3858C148.828 24.3858 147.748 23.0286 147.748 21.3664C147.748 19.7041 148.828 18.347 150.171 18.347Z" fill="#505050"/>
<path d="M162.719 16.082C161.727 16.082 160.826 16.4194 160.181 16.9476V16.6302H157.037V26.3537H160.181V19.3136C160.399 18.7217 160.866 18.3037 161.421 18.3037C161.98 18.3037 162.453 18.7163 162.662 19.3136C162.665 19.3223 162.659 19.3336 162.662 19.3424V26.3537H165.806V20.7274V19.3136V19.2559C166.033 18.697 166.481 18.3037 167.018 18.3037C167.566 18.3037 168.043 18.7059 168.258 19.2847V26.3248H171.402V18.7654V17.6112V17.5824C170.812 16.6922 169.666 16.082 168.316 16.082C167.163 16.082 166.138 16.5235 165.489 17.2073C164.852 16.5284 163.867 16.082 162.719 16.082Z" fill="#505050"/>
<path d="M38.1475 3.62322C38.1475 5.14535 36.9139 6.37926 35.3921 6.37926C33.8703 6.37926 32.6367 5.14535 32.6367 3.62322C32.6367 2.10111 33.8703 0.867188 35.3921 0.867188C36.9139 0.867188 38.1475 2.10111 38.1475 3.62322Z" fill="#505050"/>
<path d="M89.8545 3.62322C89.8545 5.14535 88.6209 6.37926 87.0991 6.37926C85.5774 6.37926 84.3437 5.14535 84.3437 3.62322C84.3437 2.10111 85.5774 0.867188 87.0991 0.867188C88.6209 0.867188 89.8545 2.10111 89.8545 3.62322Z" fill="#505050"/>
<path d="M174.822 3.94141C175.538 3.94141 176.194 4.11731 176.791 4.46912C177.387 4.82095 177.859 5.29841 178.205 5.90153C178.552 6.50464 178.725 7.16186 178.725 7.87323C178.725 8.57687 178.552 9.23217 178.205 9.83915C177.859 10.4461 177.385 10.9294 176.785 11.2889C176.185 11.6485 175.523 11.8283 174.799 11.8283C174.084 11.8283 173.427 11.6504 172.831 11.2947C172.234 10.9391 171.765 10.4597 171.422 9.85656C171.08 9.25345 170.909 8.60008 170.909 7.89644C170.909 7.19281 171.082 6.53751 171.428 5.93052C171.774 5.32354 172.246 4.84027 172.842 4.48072C173.439 4.12117 174.099 3.94141 174.822 3.94141ZM174.799 10.8656C175.353 10.8656 175.858 10.7303 176.312 10.4597C176.766 10.189 177.126 9.82562 177.391 9.36942C177.657 8.91321 177.79 8.41449 177.79 7.87323C177.79 7.33197 177.659 6.83519 177.397 6.38285C177.135 5.93051 176.777 5.57097 176.323 5.30421C175.869 5.03744 175.369 4.90406 174.822 4.90406C174.268 4.90406 173.766 5.03938 173.316 5.31001C172.865 5.58063 172.51 5.94405 172.248 6.40025C171.986 6.85646 171.855 7.35518 171.855 7.89644C171.855 8.4377 171.984 8.93448 172.242 9.38681C172.5 9.83915 172.854 10.1987 173.304 10.4655C173.754 10.7322 174.253 10.8656 174.799 10.8656ZM176.462 7.20054C176.462 7.4789 176.406 7.72053 176.294 7.92543C176.183 8.13034 176.019 8.28305 175.804 8.38357L176.577 9.58979H175.504L174.961 8.56914H174.268V9.58979H173.333V5.91312H174.926C175.419 5.91312 175.798 6.02524 176.064 6.24947C176.329 6.4737 176.462 6.79073 176.462 7.20054ZM174.268 7.82684H174.926C175.126 7.82684 175.282 7.77468 175.394 7.67027C175.506 7.56589 175.561 7.42091 175.561 7.23533C175.561 7.04203 175.505 6.89705 175.394 6.8004C175.282 6.70374 175.126 6.65541 174.926 6.65541H174.268V7.82684Z" fill="#505050"/>
</svg>
