<svg width="238" height="310" viewBox="0 0 238 310" fill="none" xmlns="http://www.w3.org/2000/svg">
<path d="M-177.63 85.1854C-163.132 113.758 -139.444 136.609 -110.385 150.054C-81.3266 163.498 -48.5913 166.751 -17.4593 159.29C13.6727 151.828 41.3867 134.086 61.213 108.925C81.0392 83.7637 91.8218 52.6505 91.8218 20.6031C91.8218 -11.4442 81.0392 -42.5573 61.213 -67.7184C41.3867 -92.8795 13.6727 -110.622 -17.4593 -118.083C-48.5913 -125.545 -81.3266 -122.291 -110.385 -108.847C-139.444 -95.4029 -163.132 -72.5517 -177.63 -43.9791H-331.891C-316.04 -113.052 -275.342 -173.866 -217.561 -214.816C-159.781 -255.767 -88.9635 -273.988 -18.6202 -266.003C51.7231 -258.018 116.668 -224.386 163.822 -171.523C210.977 -118.661 237.041 -50.2693 237.041 20.6031C237.041 91.4756 210.977 159.867 163.822 212.73C116.668 265.592 51.7231 299.224 -18.6202 307.209C-88.9635 315.194 -159.781 296.973 -217.561 256.022C-275.342 215.072 -316.04 154.259 -331.891 85.1854H-177.63Z" fill="#F7475E"/>
</svg>
