<svg width="24" height="20" viewBox="0 0 24 20" fill="none" xmlns="http://www.w3.org/2000/svg">
<path d="M5.39994 6.39844C6.19559 6.39844 6.95865 6.08237 7.52126 5.51976C8.08387 4.95715 8.39994 4.19409 8.39994 3.39844C8.39994 2.60279 8.08387 1.83973 7.52126 1.27712C6.95865 0.714508 6.19559 0.398438 5.39994 0.398438C4.60429 0.398438 3.84123 0.714508 3.27862 1.27712C2.71601 1.83973 2.39994 2.60279 2.39994 3.39844C2.39994 4.19409 2.71601 4.95715 3.27862 5.51976C3.84123 6.08237 4.60429 6.39844 5.39994 6.39844ZM19.1999 6.39844C19.9956 6.39844 20.7587 6.08237 21.3213 5.51976C21.8839 4.95715 22.1999 4.19409 22.1999 3.39844C22.1999 2.60279 21.8839 1.83973 21.3213 1.27712C20.7587 0.714508 19.9956 0.398438 19.1999 0.398438C18.4043 0.398438 17.6412 0.714508 17.0786 1.27712C16.516 1.83973 16.1999 2.60279 16.1999 3.39844C16.1999 4.19409 16.516 4.95715 17.0786 5.51976C17.6412 6.08237 18.4043 6.39844 19.1999 6.39844ZM-5.72205e-05 11.5997C-5.72205e-05 12.0384 0.359943 12.3984 0.798693 12.3984H8.79744C8.80494 12.3984 8.81244 12.3984 8.82369 12.3984C7.82619 11.5172 7.19994 10.2309 7.19994 8.79844C7.19994 8.51344 7.22619 8.23594 7.27119 7.96219C6.76119 7.72594 6.19494 7.59844 5.59869 7.59844H3.99744C1.79244 7.59844 -5.72205e-05 9.39094 -5.72205e-05 11.5997ZM11.9999 12.3984C12.8999 12.3984 13.7212 12.0684 14.3512 11.5247C14.4449 11.3859 14.5462 11.2509 14.6512 11.1234C14.7524 10.9997 14.8649 10.8947 14.9887 10.8122C15.3749 10.2347 15.5999 9.54469 15.5999 8.79844C15.5999 6.81094 13.9874 5.19844 11.9999 5.19844C10.0124 5.19844 8.39994 6.81094 8.39994 8.79844C8.39994 10.7859 10.0124 12.3984 11.9999 12.3984ZM14.4524 14.6559C14.0662 14.4347 13.7737 14.0484 13.6724 13.5984H9.80244C7.03869 13.5984 4.79994 15.8372 4.79994 18.5972C4.79994 19.1484 5.24619 19.5984 5.80119 19.5984H17.0737C16.9949 19.4034 16.9537 19.1897 16.9537 18.9834V18.8709C16.9049 18.8447 16.8524 18.8147 16.8037 18.7847L16.7062 18.8409C16.0762 19.2047 15.1874 19.1409 14.6549 18.4772C14.4862 18.2672 14.3324 18.0459 14.1899 17.8172L14.1862 17.8097L14.1824 17.8022L14.0924 17.6484L14.0887 17.6409L14.0849 17.6334C13.9574 17.4009 13.8449 17.1609 13.7474 16.9097C13.4399 16.1147 13.8299 15.3122 14.4599 14.9484L14.5612 14.8922C14.5612 14.8622 14.5612 14.8359 14.5612 14.8059C14.5612 14.7759 14.5612 14.7497 14.5612 14.7197L14.4599 14.6634L14.4524 14.6559ZM19.9987 7.59844H18.3974C17.8012 7.59844 17.2349 7.72969 16.7249 7.96219C16.7737 8.23219 16.7962 8.51344 16.7962 8.79844C16.7962 9.45094 16.6649 10.0697 16.4324 10.6359C16.5262 10.6697 16.6162 10.7109 16.6987 10.7597L16.7962 10.8159C16.8449 10.7859 16.8937 10.7559 16.9462 10.7297V10.6172C16.9462 9.88969 17.4449 9.15094 18.2887 9.01969C18.5849 8.97469 18.8887 8.94844 19.1962 8.94844C19.5037 8.94844 19.8074 8.97094 20.1037 9.01969C20.9474 9.15094 21.4462 9.88969 21.4462 10.6172V10.7297C21.4949 10.7559 21.5474 10.7859 21.5962 10.8159L21.6937 10.7597C22.3237 10.3959 23.2124 10.4597 23.7449 11.1234C23.8312 11.2284 23.9137 11.3409 23.9924 11.4497C23.9137 9.30844 22.1549 7.59844 19.9949 7.59844H19.9987ZM23.4224 13.7447C23.6587 13.6097 23.7787 13.3284 23.6774 13.0697C23.5987 12.8634 23.5049 12.6647 23.3999 12.4734L23.3137 12.3234C23.1974 12.1322 23.0699 11.9522 22.9312 11.7797C22.7587 11.5659 22.4549 11.5284 22.2187 11.6672L22.1099 11.7309C21.7649 11.9297 21.3449 11.8809 20.9999 11.6822C20.6549 11.4834 20.3962 11.1384 20.3962 10.7409V10.6134C20.3962 10.3397 20.2124 10.0959 19.9424 10.0547C19.6987 10.0172 19.4512 9.99844 19.1962 9.99844C18.9412 9.99844 18.6937 10.0172 18.4499 10.0547C18.1799 10.0959 17.9962 10.3397 17.9962 10.6134V10.7409C17.9962 11.1384 17.7374 11.4834 17.3924 11.6822C17.0474 11.8809 16.6274 11.9297 16.2824 11.7309L16.1737 11.6672C15.9374 11.5322 15.6337 11.5697 15.4612 11.7797C15.3224 11.9522 15.1949 12.1359 15.0787 12.3272L14.9924 12.4734C14.8874 12.6647 14.7937 12.8634 14.7149 13.0697C14.6174 13.3247 14.7337 13.6059 14.9699 13.7409L15.0787 13.8047C15.4237 14.0034 15.5924 14.3972 15.5924 14.7947C15.5924 15.1922 15.4237 15.5859 15.0787 15.7847L14.9662 15.8484C14.7299 15.9834 14.6099 16.2647 14.7112 16.5197C14.7899 16.7259 14.8837 16.9209 14.9887 17.1122L15.0787 17.2659C15.1912 17.4572 15.3187 17.6372 15.4574 17.8097C15.6299 18.0234 15.9337 18.0609 16.1699 17.9222L16.2787 17.8584C16.6237 17.6597 17.0437 17.7084 17.3887 17.9072C17.7337 18.1059 17.9924 18.4509 17.9924 18.8484V18.9759C17.9924 19.2497 18.1762 19.4934 18.4462 19.5347C18.6899 19.5722 18.9374 19.5909 19.1924 19.5909C19.4474 19.5909 19.6949 19.5722 19.9387 19.5347C20.2087 19.4934 20.3924 19.2497 20.3924 18.9759V18.8484C20.3924 18.4509 20.6512 18.1059 20.9962 17.9072C21.3412 17.7084 21.7612 17.6597 22.1062 17.8584L22.2149 17.9222C22.4512 18.0572 22.7549 18.0197 22.9274 17.8097C23.0662 17.6372 23.1937 17.4572 23.3062 17.2659L23.3962 17.1084C23.5012 16.9172 23.5949 16.7222 23.6737 16.5159C23.7712 16.2609 23.6549 15.9797 23.4187 15.8447L23.3062 15.7809C22.9612 15.5822 22.7924 15.1884 22.7924 14.7909C22.7924 14.3934 22.9612 13.9997 23.3062 13.8009L23.4187 13.7372L23.4224 13.7447ZM17.6999 14.7984C17.6999 14.4006 17.858 14.0191 18.1393 13.7378C18.4206 13.4565 18.8021 13.2984 19.1999 13.2984C19.5978 13.2984 19.9793 13.4565 20.2606 13.7378C20.5419 14.0191 20.6999 14.4006 20.6999 14.7984C20.6999 15.1963 20.5419 15.5778 20.2606 15.8591C19.9793 16.1404 19.5978 16.2984 19.1999 16.2984C18.8021 16.2984 18.4206 16.1404 18.1393 15.8591C17.858 15.5778 17.6999 15.1963 17.6999 14.7984Z" fill="#15202B"/>
</svg>
